<mxfile host="app.diagrams.net" modified="2024-03-03T11:25:20.384Z" agent="Mozilla/5.0 (Macintosh; Intel Mac OS X 10_15_7) AppleWebKit/605.1.15 (KHTML, like Gecko) Version/17.3.1 Safari/605.1.15" version="23.0.2" etag="MJWeCwQlbED90Qs4egam" type="github">
  <diagram name="Page-1" id="0RszDfhj8rFryvsgpMHw">
    <mxGraphModel>
      <root>
        <mxCell id="0" />
        <mxCell id="1" parent="0" />
      </root>
    </mxGraphModel>
  </diagram>
</mxfile>
